<mxfile host="app.diagrams.net" modified="2024-06-13T00:18:25.950Z" agent="Mozilla/5.0 (Windows NT 10.0; Win64; x64) AppleWebKit/537.36 (KHTML, like Gecko) Chrome/125.0.0.0 Safari/537.36" etag="yH04f8Gds2o_SBAiw7ef" version="24.5.4" type="github">
  <diagram name="Page-1" id="T_0iRUmvY81oJAspE06b">
    <mxGraphModel dx="1434" dy="738" grid="1" gridSize="10" guides="1" tooltips="1" connect="1" arrows="1" fold="1" page="1" pageScale="1" pageWidth="583" pageHeight="827" math="0" shadow="0">
      <root>
        <mxCell id="0" />
        <mxCell id="1" parent="0" />
        <mxCell id="IGG6cLYfQxwrzeceX1JH-1" value="Secuencia flujo docente" style="shape=umlFrame;whiteSpace=wrap;html=1;pointerEvents=0;recursiveResize=0;container=1;collapsible=0;width=170;height=50;" vertex="1" parent="1">
          <mxGeometry x="30" y="40" width="800" height="530" as="geometry" />
        </mxCell>
        <mxCell id="IGG6cLYfQxwrzeceX1JH-2" value="Docente" style="shape=umlLifeline;perimeter=lifelinePerimeter;whiteSpace=wrap;html=1;container=1;dropTarget=0;collapsible=0;recursiveResize=0;outlineConnect=0;portConstraint=eastwest;newEdgeStyle={&quot;edgeStyle&quot;:&quot;elbowEdgeStyle&quot;,&quot;elbow&quot;:&quot;vertical&quot;,&quot;curved&quot;:0,&quot;rounded&quot;:0};size=50;" vertex="1" parent="IGG6cLYfQxwrzeceX1JH-1">
          <mxGeometry x="60" y="75" width="145" height="420" as="geometry" />
        </mxCell>
        <mxCell id="IGG6cLYfQxwrzeceX1JH-3" value="" style="html=1;points=[[0,0,0,0,5],[0,1,0,0,-5],[1,0,0,0,5],[1,1,0,0,-5]];perimeter=orthogonalPerimeter;outlineConnect=0;targetShapes=umlLifeline;portConstraint=eastwest;newEdgeStyle={&quot;curved&quot;:0,&quot;rounded&quot;:0};" vertex="1" parent="IGG6cLYfQxwrzeceX1JH-2">
          <mxGeometry x="66.25" y="70" width="12.5" height="30" as="geometry" />
        </mxCell>
        <mxCell id="IGG6cLYfQxwrzeceX1JH-4" value="" style="html=1;points=[[0,0,0,0,5],[0,1,0,0,-5],[1,0,0,0,5],[1,1,0,0,-5]];perimeter=orthogonalPerimeter;outlineConnect=0;targetShapes=umlLifeline;portConstraint=eastwest;newEdgeStyle={&quot;curved&quot;:0,&quot;rounded&quot;:0};" vertex="1" parent="IGG6cLYfQxwrzeceX1JH-2">
          <mxGeometry x="66.25" y="265" width="10" height="37.5" as="geometry" />
        </mxCell>
        <mxCell id="IGG6cLYfQxwrzeceX1JH-5" value="Blockchain" style="shape=umlLifeline;perimeter=lifelinePerimeter;whiteSpace=wrap;html=1;container=1;dropTarget=0;collapsible=0;recursiveResize=0;outlineConnect=0;portConstraint=eastwest;newEdgeStyle={&quot;edgeStyle&quot;:&quot;elbowEdgeStyle&quot;,&quot;elbow&quot;:&quot;vertical&quot;,&quot;curved&quot;:0,&quot;rounded&quot;:0};size=55;" vertex="1" parent="IGG6cLYfQxwrzeceX1JH-1">
          <mxGeometry x="600" y="80" width="150" height="410" as="geometry" />
        </mxCell>
        <mxCell id="IGG6cLYfQxwrzeceX1JH-6" value="" style="html=1;points=[[0,0,0,0,5],[0,1,0,0,-5],[1,0,0,0,5],[1,1,0,0,-5]];perimeter=orthogonalPerimeter;outlineConnect=0;targetShapes=umlLifeline;portConstraint=eastwest;newEdgeStyle={&quot;curved&quot;:0,&quot;rounded&quot;:0};" vertex="1" parent="IGG6cLYfQxwrzeceX1JH-5">
          <mxGeometry x="70" y="170" width="10" height="40" as="geometry" />
        </mxCell>
        <mxCell id="IGG6cLYfQxwrzeceX1JH-7" value="" style="html=1;points=[[0,0,0,0,5],[0,1,0,0,-5],[1,0,0,0,5],[1,1,0,0,-5]];perimeter=orthogonalPerimeter;outlineConnect=0;targetShapes=umlLifeline;portConstraint=eastwest;newEdgeStyle={&quot;curved&quot;:0,&quot;rounded&quot;:0};" vertex="1" parent="IGG6cLYfQxwrzeceX1JH-5">
          <mxGeometry x="70" y="350" width="10" height="37.5" as="geometry" />
        </mxCell>
        <mxCell id="IGG6cLYfQxwrzeceX1JH-8" value="Frontend" style="shape=umlLifeline;perimeter=lifelinePerimeter;whiteSpace=wrap;html=1;container=1;dropTarget=0;collapsible=0;recursiveResize=0;outlineConnect=0;portConstraint=eastwest;newEdgeStyle={&quot;edgeStyle&quot;:&quot;elbowEdgeStyle&quot;,&quot;elbow&quot;:&quot;vertical&quot;,&quot;curved&quot;:0,&quot;rounded&quot;:0};size=50;" vertex="1" parent="IGG6cLYfQxwrzeceX1JH-1">
          <mxGeometry x="270" y="75" width="100" height="415" as="geometry" />
        </mxCell>
        <mxCell id="IGG6cLYfQxwrzeceX1JH-9" value="" style="html=1;points=[[0,0,0,0,5],[0,1,0,0,-5],[1,0,0,0,5],[1,1,0,0,-5]];perimeter=orthogonalPerimeter;outlineConnect=0;targetShapes=umlLifeline;portConstraint=eastwest;newEdgeStyle={&quot;curved&quot;:0,&quot;rounded&quot;:0};" vertex="1" parent="IGG6cLYfQxwrzeceX1JH-8">
          <mxGeometry x="45" y="95" width="10" height="55" as="geometry" />
        </mxCell>
        <mxCell id="IGG6cLYfQxwrzeceX1JH-10" value="" style="html=1;points=[[0,0,0,0,5],[0,1,0,0,-5],[1,0,0,0,5],[1,1,0,0,-5]];perimeter=orthogonalPerimeter;outlineConnect=0;targetShapes=umlLifeline;portConstraint=eastwest;newEdgeStyle={&quot;curved&quot;:0,&quot;rounded&quot;:0};" vertex="1" parent="IGG6cLYfQxwrzeceX1JH-8">
          <mxGeometry x="45" y="235" width="10" height="37.5" as="geometry" />
        </mxCell>
        <mxCell id="IGG6cLYfQxwrzeceX1JH-11" value="" style="html=1;points=[[0,0,0,0,5],[0,1,0,0,-5],[1,0,0,0,5],[1,1,0,0,-5]];perimeter=orthogonalPerimeter;outlineConnect=0;targetShapes=umlLifeline;portConstraint=eastwest;newEdgeStyle={&quot;curved&quot;:0,&quot;rounded&quot;:0};" vertex="1" parent="IGG6cLYfQxwrzeceX1JH-8">
          <mxGeometry x="45" y="295" width="10" height="37.5" as="geometry" />
        </mxCell>
        <mxCell id="IGG6cLYfQxwrzeceX1JH-12" value="Contrato inteligente" style="shape=umlLifeline;perimeter=lifelinePerimeter;whiteSpace=wrap;html=1;container=1;dropTarget=0;collapsible=0;recursiveResize=0;outlineConnect=0;portConstraint=eastwest;newEdgeStyle={&quot;edgeStyle&quot;:&quot;elbowEdgeStyle&quot;,&quot;elbow&quot;:&quot;vertical&quot;,&quot;curved&quot;:0,&quot;rounded&quot;:0};size=55;" vertex="1" parent="IGG6cLYfQxwrzeceX1JH-1">
          <mxGeometry x="450" y="77.5" width="100" height="415" as="geometry" />
        </mxCell>
        <mxCell id="IGG6cLYfQxwrzeceX1JH-13" value="" style="html=1;points=[[0,0,0,0,5],[0,1,0,0,-5],[1,0,0,0,5],[1,1,0,0,-5]];perimeter=orthogonalPerimeter;outlineConnect=0;targetShapes=umlLifeline;portConstraint=eastwest;newEdgeStyle={&quot;curved&quot;:0,&quot;rounded&quot;:0};" vertex="1" parent="IGG6cLYfQxwrzeceX1JH-12">
          <mxGeometry x="45" y="142.5" width="10" height="37.5" as="geometry" />
        </mxCell>
        <mxCell id="IGG6cLYfQxwrzeceX1JH-14" value="" style="html=1;points=[[0,0,0,0,5],[0,1,0,0,-5],[1,0,0,0,5],[1,1,0,0,-5]];perimeter=orthogonalPerimeter;outlineConnect=0;targetShapes=umlLifeline;portConstraint=eastwest;newEdgeStyle={&quot;curved&quot;:0,&quot;rounded&quot;:0};" vertex="1" parent="IGG6cLYfQxwrzeceX1JH-12">
          <mxGeometry x="45" y="202.5" width="10" height="37.5" as="geometry" />
        </mxCell>
        <mxCell id="IGG6cLYfQxwrzeceX1JH-15" value="" style="html=1;points=[[0,0,0,0,5],[0,1,0,0,-5],[1,0,0,0,5],[1,1,0,0,-5]];perimeter=orthogonalPerimeter;outlineConnect=0;targetShapes=umlLifeline;portConstraint=eastwest;newEdgeStyle={&quot;curved&quot;:0,&quot;rounded&quot;:0};" vertex="1" parent="IGG6cLYfQxwrzeceX1JH-12">
          <mxGeometry x="45" y="322.5" width="10" height="37.5" as="geometry" />
        </mxCell>
        <mxCell id="IGG6cLYfQxwrzeceX1JH-16" style="edgeStyle=none;rounded=0;orthogonalLoop=1;jettySize=auto;html=1;curved=0;exitX=1;exitY=1;exitDx=0;exitDy=-5;exitPerimeter=0;" edge="1" parent="IGG6cLYfQxwrzeceX1JH-1" source="IGG6cLYfQxwrzeceX1JH-3" target="IGG6cLYfQxwrzeceX1JH-9">
          <mxGeometry relative="1" as="geometry" />
        </mxCell>
        <mxCell id="IGG6cLYfQxwrzeceX1JH-17" value="Ingresar usuario y contraseña" style="text;html=1;align=center;verticalAlign=middle;resizable=0;points=[];autosize=1;strokeColor=none;fillColor=none;" vertex="1" parent="IGG6cLYfQxwrzeceX1JH-1">
          <mxGeometry x="140" y="150" width="180" height="30" as="geometry" />
        </mxCell>
        <mxCell id="IGG6cLYfQxwrzeceX1JH-18" style="edgeStyle=none;rounded=0;orthogonalLoop=1;jettySize=auto;html=1;curved=0;exitX=1;exitY=1;exitDx=0;exitDy=-5;exitPerimeter=0;" edge="1" parent="IGG6cLYfQxwrzeceX1JH-1" source="IGG6cLYfQxwrzeceX1JH-9" target="IGG6cLYfQxwrzeceX1JH-12">
          <mxGeometry relative="1" as="geometry" />
        </mxCell>
        <mxCell id="IGG6cLYfQxwrzeceX1JH-19" value="Enviar datos a verificar" style="text;html=1;align=center;verticalAlign=middle;resizable=0;points=[];autosize=1;strokeColor=none;fillColor=none;" vertex="1" parent="IGG6cLYfQxwrzeceX1JH-1">
          <mxGeometry x="340" y="198" width="150" height="30" as="geometry" />
        </mxCell>
        <mxCell id="IGG6cLYfQxwrzeceX1JH-20" style="edgeStyle=none;rounded=0;orthogonalLoop=1;jettySize=auto;html=1;curved=0;exitX=1;exitY=1;exitDx=0;exitDy=-5;exitPerimeter=0;" edge="1" parent="IGG6cLYfQxwrzeceX1JH-1" source="IGG6cLYfQxwrzeceX1JH-13" target="IGG6cLYfQxwrzeceX1JH-5">
          <mxGeometry relative="1" as="geometry" />
        </mxCell>
        <mxCell id="IGG6cLYfQxwrzeceX1JH-21" value="Registrar información" style="text;html=1;align=center;verticalAlign=middle;resizable=0;points=[];autosize=1;strokeColor=none;fillColor=none;" vertex="1" parent="IGG6cLYfQxwrzeceX1JH-1">
          <mxGeometry x="520" y="228" width="140" height="30" as="geometry" />
        </mxCell>
        <mxCell id="IGG6cLYfQxwrzeceX1JH-22" style="edgeStyle=none;rounded=0;orthogonalLoop=1;jettySize=auto;html=1;curved=0;exitX=0;exitY=1;exitDx=0;exitDy=-5;exitPerimeter=0;" edge="1" parent="IGG6cLYfQxwrzeceX1JH-1" source="IGG6cLYfQxwrzeceX1JH-6" target="IGG6cLYfQxwrzeceX1JH-12">
          <mxGeometry relative="1" as="geometry" />
        </mxCell>
        <mxCell id="IGG6cLYfQxwrzeceX1JH-23" value="Retornar información&lt;span style=&quot;background-color: initial;&quot;&gt;&amp;nbsp;usuario&lt;/span&gt;" style="text;html=1;align=center;verticalAlign=middle;resizable=0;points=[];autosize=1;strokeColor=none;fillColor=none;" vertex="1" parent="IGG6cLYfQxwrzeceX1JH-1">
          <mxGeometry x="500" y="265" width="180" height="30" as="geometry" />
        </mxCell>
        <mxCell id="IGG6cLYfQxwrzeceX1JH-24" style="edgeStyle=none;rounded=0;orthogonalLoop=1;jettySize=auto;html=1;curved=0;exitX=0;exitY=1;exitDx=0;exitDy=-5;exitPerimeter=0;" edge="1" parent="IGG6cLYfQxwrzeceX1JH-1" source="IGG6cLYfQxwrzeceX1JH-14" target="IGG6cLYfQxwrzeceX1JH-8">
          <mxGeometry relative="1" as="geometry" />
        </mxCell>
        <mxCell id="IGG6cLYfQxwrzeceX1JH-25" value="Ingreso exitoso" style="text;html=1;align=center;verticalAlign=middle;resizable=0;points=[];autosize=1;strokeColor=none;fillColor=none;" vertex="1" parent="IGG6cLYfQxwrzeceX1JH-1">
          <mxGeometry x="360" y="288" width="100" height="30" as="geometry" />
        </mxCell>
        <mxCell id="IGG6cLYfQxwrzeceX1JH-26" style="edgeStyle=none;rounded=0;orthogonalLoop=1;jettySize=auto;html=1;curved=0;exitX=0;exitY=1;exitDx=0;exitDy=-5;exitPerimeter=0;" edge="1" parent="IGG6cLYfQxwrzeceX1JH-1" source="IGG6cLYfQxwrzeceX1JH-10" target="IGG6cLYfQxwrzeceX1JH-2">
          <mxGeometry relative="1" as="geometry" />
        </mxCell>
        <mxCell id="IGG6cLYfQxwrzeceX1JH-27" value="Ingreso exitoso" style="text;html=1;align=center;verticalAlign=middle;resizable=0;points=[];autosize=1;strokeColor=none;fillColor=none;" vertex="1" parent="IGG6cLYfQxwrzeceX1JH-1">
          <mxGeometry x="180" y="318" width="100" height="30" as="geometry" />
        </mxCell>
        <mxCell id="IGG6cLYfQxwrzeceX1JH-28" style="edgeStyle=none;rounded=0;orthogonalLoop=1;jettySize=auto;html=1;curved=0;exitX=1;exitY=1;exitDx=0;exitDy=-5;exitPerimeter=0;" edge="1" parent="IGG6cLYfQxwrzeceX1JH-1" source="IGG6cLYfQxwrzeceX1JH-4" target="IGG6cLYfQxwrzeceX1JH-8">
          <mxGeometry relative="1" as="geometry" />
        </mxCell>
        <mxCell id="IGG6cLYfQxwrzeceX1JH-29" value="Preinscribir disponibilidad academica" style="text;html=1;align=center;verticalAlign=middle;resizable=0;points=[];autosize=1;strokeColor=none;fillColor=none;fontSize=10;" vertex="1" parent="IGG6cLYfQxwrzeceX1JH-1">
          <mxGeometry x="135" y="348" width="190" height="30" as="geometry" />
        </mxCell>
        <mxCell id="IGG6cLYfQxwrzeceX1JH-30" style="edgeStyle=none;rounded=0;orthogonalLoop=1;jettySize=auto;html=1;curved=0;exitX=1;exitY=1;exitDx=0;exitDy=-5;exitPerimeter=0;" edge="1" parent="IGG6cLYfQxwrzeceX1JH-1" source="IGG6cLYfQxwrzeceX1JH-11" target="IGG6cLYfQxwrzeceX1JH-12">
          <mxGeometry relative="1" as="geometry" />
        </mxCell>
        <mxCell id="IGG6cLYfQxwrzeceX1JH-31" value="Registrar disponibilidad" style="text;html=1;align=center;verticalAlign=middle;resizable=0;points=[];autosize=1;strokeColor=none;fillColor=none;" vertex="1" parent="IGG6cLYfQxwrzeceX1JH-1">
          <mxGeometry x="340" y="378" width="150" height="30" as="geometry" />
        </mxCell>
        <mxCell id="IGG6cLYfQxwrzeceX1JH-32" style="edgeStyle=none;rounded=0;orthogonalLoop=1;jettySize=auto;html=1;curved=0;exitX=1;exitY=1;exitDx=0;exitDy=-5;exitPerimeter=0;" edge="1" parent="IGG6cLYfQxwrzeceX1JH-1" source="IGG6cLYfQxwrzeceX1JH-15" target="IGG6cLYfQxwrzeceX1JH-5">
          <mxGeometry relative="1" as="geometry" />
        </mxCell>
        <mxCell id="IGG6cLYfQxwrzeceX1JH-33" value="Almacenar disponibilidad" style="text;html=1;align=center;verticalAlign=middle;resizable=0;points=[];autosize=1;strokeColor=none;fillColor=none;" vertex="1" parent="IGG6cLYfQxwrzeceX1JH-1">
          <mxGeometry x="510" y="408" width="160" height="30" as="geometry" />
        </mxCell>
      </root>
    </mxGraphModel>
  </diagram>
</mxfile>
